<svg version="1.1" id="Layer_1" xmlns="http://www.w3.org/2000/svg" xmlns:xlink="http://www.w3.org/1999/xlink" x="0px" y="0px"
	 width="100%" viewBox="0 0 543 129" enable-background="new 0 0 543 129" xml:space="preserve">
<path fill="#000000" opacity="1.000000" stroke="none" 
	d="
M392.000000,130.000000 
	C261.333344,130.000000 131.166718,130.000000 1.000052,130.000000 
	C1.000035,87.000031 1.000035,44.000061 1.000017,1.000070 
	C181.999939,1.000046 362.999878,1.000046 543.999878,1.000023 
	C543.999878,43.999928 543.999878,86.999855 543.999939,129.999893 
	C493.500000,130.000000 443.000000,130.000000 392.000000,130.000000 
M48.500000,8.000729 
	C37.834236,8.000731 27.168453,7.989482 16.502710,8.004871 
	C9.883880,8.014422 8.006997,9.884279 8.005042,16.504768 
	C7.995497,48.835506 7.995460,81.166245 8.005232,113.496986 
	C8.007233,120.116089 9.884481,121.992805 16.505392,121.994804 
	C48.836128,122.004547 81.166870,122.004539 113.497604,121.994858 
	C120.116089,121.992874 121.993034,120.114754 121.994980,113.494499 
	C122.004478,81.163757 122.004547,48.833019 121.994873,16.502281 
	C121.992889,9.883345 120.115379,8.008675 113.494865,8.005054 
	C92.163254,7.993388 70.831619,8.000721 48.500000,8.000729 
M464.612427,87.976082 
	C468.448975,88.597832 469.342529,85.720230 470.405334,83.077454 
	C473.579590,75.184189 476.736572,67.283981 479.900299,59.386482 
	C481.003082,67.322144 481.060791,74.957954 480.975494,82.592163 
	C480.939972,85.770958 481.284882,88.064865 485.434296,88.073669 
	C489.468811,88.082230 490.057770,86.024521 490.032440,82.723969 
	C489.941589,70.896187 490.053955,59.066807 489.953094,47.239193 
	C489.932495,44.827705 491.095459,41.267212 486.884949,41.147068 
	C483.181427,41.041389 478.912262,39.456726 476.909119,44.985332 
	C473.907135,53.270794 470.345581,61.354298 466.980469,69.506554 
	C466.471619,70.739342 465.738556,71.879585 464.806396,73.631790 
	C464.078949,72.210281 463.737732,71.647728 463.491364,71.046333 
	C459.895477,62.268841 456.211395,53.525520 452.764862,44.689587 
	C450.781799,39.605595 446.596802,41.028675 442.994690,41.148067 
	C439.133087,41.276054 440.051178,44.547703 440.036652,46.856133 
	C439.961090,58.850727 440.069977,70.846680 439.961426,82.840767 
	C439.930511,86.256798 440.753723,88.124130 444.683258,88.065956 
	C448.442932,88.010284 449.136444,86.076477 449.018463,82.976006 
	C448.910858,80.147987 448.999329,77.312546 448.999786,74.480377 
	C449.000519,69.868851 449.000000,65.257324 449.000000,60.645802 
	C453.384125,68.442955 456.518097,76.312813 459.956146,84.047516 
	C460.649841,85.608208 462.495544,86.656860 464.612427,87.976082 
M167.029175,59.483978 
	C171.942627,53.804703 176.856064,48.125431 182.033646,42.140869 
	C174.013306,39.824379 171.714127,40.610588 167.375610,45.876663 
	C163.112259,51.051506 158.629318,56.045452 154.242737,61.118782 
	C153.822006,60.993500 153.401291,60.868221 152.980560,60.742943 
	C152.980560,55.510967 152.917450,50.277935 153.004700,45.047417 
	C153.055466,42.003414 151.589020,40.989433 148.716278,40.973087 
	C145.765793,40.956299 143.962128,41.672699 143.984039,45.111633 
	C144.066742,58.086094 144.037918,71.061440 144.004013,84.036331 
	C143.997009,86.715080 145.122482,87.849731 147.863068,88.034561 
	C151.834061,88.302368 153.264084,86.657463 153.035049,82.804253 
	C152.737701,77.801849 152.334793,72.625832 158.632919,69.833336 
	C161.711761,74.163383 164.869644,78.572052 167.992767,83.005226 
	C171.831573,88.454269 174.913406,89.370346 182.042603,86.948387 
	C177.052658,79.832382 171.982834,72.862640 167.269165,65.659843 
	C166.331863,64.227570 166.758331,61.902817 167.029175,59.483978 
M498.976471,82.361549 
	C499.663605,83.085205 500.321289,83.839729 501.042511,84.527672 
	C507.569336,90.753654 522.672241,90.634521 529.130859,84.317184 
	C536.261597,77.342407 533.400391,66.215614 523.300354,62.345711 
	C519.437561,60.865635 515.169495,60.392128 511.399353,58.743465 
	C509.616882,57.964024 507.640076,55.575169 507.489471,53.770462 
	C507.369904,52.337608 509.606781,50.154694 511.302063,49.232864 
	C515.524780,46.936680 518.791077,48.584515 522.985291,52.765236 
	C524.540771,54.315693 527.886902,54.069668 530.416443,54.642918 
	C530.518433,52.584274 531.468445,49.943813 530.540710,48.591667 
	C528.771545,46.013115 526.240906,43.559376 523.468872,42.151920 
	C518.227539,39.490772 512.624390,39.697929 507.034576,41.800068 
	C501.688904,43.810390 498.520508,47.612289 497.964935,52.521954 
	C497.252106,58.821709 499.478912,63.346031 505.397675,65.627037 
	C509.412018,67.174126 513.833679,67.775681 517.669434,69.633575 
	C520.007812,70.766197 523.121582,73.452591 523.158813,75.490913 
	C523.225769,79.155724 519.629578,81.237114 516.039185,80.816269 
	C512.954163,80.454666 508.639465,79.653618 507.304535,77.521622 
	C504.344696,72.794563 500.858582,74.027023 496.173462,74.577316 
	C497.037964,77.224403 497.780396,79.497719 498.976471,82.361549 
M430.928467,57.821259 
	C431.316986,56.161488 432.406799,54.292709 431.984192,52.874687 
	C428.277588,40.438000 409.612305,35.907856 399.631744,44.887672 
	C389.910645,53.633995 388.198090,69.898560 395.932312,80.860878 
	C400.913971,87.921799 408.239716,89.674576 416.222107,88.871819 
	C423.283356,88.161690 428.838593,84.652107 431.514496,77.758347 
	C432.120880,76.196091 431.641693,74.212448 431.662201,72.422775 
	C429.135498,72.705048 426.572449,72.824364 424.105377,73.374214 
	C423.413879,73.528343 423.200592,75.318192 422.432495,75.726318 
	C419.046326,77.525513 415.589081,80.295639 412.060394,80.446938 
	C407.479126,80.643364 403.198029,77.743240 402.219635,72.736504 
	C401.342590,68.248459 400.777069,63.419476 401.501831,58.973667 
	C402.299316,54.082012 405.523041,49.994411 410.937592,49.183907 
	C416.277313,48.384602 420.508484,50.082912 423.432465,55.281860 
	C424.347107,56.908119 427.828339,57.090878 430.928467,57.821259 
M268.031281,56.551746 
	C258.806183,48.501289 244.087036,51.619408 241.784027,62.366642 
	C245.402206,63.287827 248.891174,64.840385 252.008774,60.906384 
	C252.795502,59.913647 255.011215,59.056110 256.043793,59.465210 
	C258.126190,60.290230 259.847076,62.027573 261.717102,63.388573 
	C260.182068,64.555550 258.768127,65.970154 257.068756,66.800934 
	C255.968292,67.338928 254.299454,66.667152 253.147552,67.155731 
	C249.300522,68.787468 244.833069,69.940071 241.996323,72.705292 
	C238.893188,75.730171 239.071228,80.359108 241.883026,84.214989 
	C245.068100,88.582741 250.342743,90.052361 256.225952,88.734550 
	C258.970367,88.119835 261.890137,87.836548 264.690186,88.019348 
	C269.888458,88.358727 270.946259,87.655647 270.986877,82.474266 
	C271.033844,76.477013 271.228546,70.465714 270.884399,64.487846 
	C270.740723,61.992329 269.373077,59.567280 268.031281,56.551746 
M207.576126,84.972038 
	C219.445175,92.263550 232.926193,89.256912 234.371109,78.747742 
	C230.912384,77.641251 228.007751,77.002556 224.509338,79.922005 
	C219.059296,84.470146 212.727066,81.173607 211.848770,73.326195 
	C213.623291,73.216614 215.374252,73.031792 217.126846,73.014824 
	C222.118057,72.966507 227.123428,73.185028 232.092529,72.847076 
	C233.415878,72.757080 235.519318,71.213501 235.740997,70.047607 
	C236.794907,64.504677 232.815247,57.046204 227.918167,54.467999 
	C220.952728,50.800835 213.837753,51.270393 208.798904,55.729774 
	C200.541245,63.037830 199.775162,75.461647 207.576126,84.972038 
M313.197174,79.997093 
	C316.390106,87.710915 325.220642,90.142899 333.024597,88.712219 
	C339.029633,87.611336 342.554901,84.198517 343.449921,78.465240 
	C340.040009,78.218399 337.070099,76.378784 333.615723,79.998940 
	C332.085480,81.602646 327.524353,81.574272 325.007629,80.585358 
	C322.925995,79.767403 321.826904,76.449005 320.292480,74.238503 
	C320.683319,73.820152 321.074188,73.401802 321.465057,72.983452 
	C327.924438,72.983452 334.384491,72.930428 340.842987,73.007271 
	C343.785828,73.042274 345.041992,71.846184 344.980591,68.836693 
	C344.799927,59.975266 338.365601,52.857563 329.648193,52.072948 
	C321.156036,51.308613 313.311829,56.968292 312.144592,65.626350 
	C311.547577,70.054810 312.627502,74.709343 313.197174,79.997093 
M286.255829,60.175152 
	C284.398804,52.553123 282.873688,51.676994 274.668121,53.963173 
	C278.253387,63.962479 281.952026,73.889389 285.336517,83.922272 
	C286.568359,87.574028 288.977997,87.987427 292.232422,88.074158 
	C295.621155,88.164482 297.515137,86.773941 298.569336,83.712891 
	C301.057831,76.487053 303.643311,69.294487 306.112000,62.061977 
	C307.039612,59.344299 307.752441,56.553314 308.578094,53.745075 
	C300.164673,52.152016 300.066986,52.190857 297.831482,59.070511 
	C296.011688,64.670692 294.238464,70.286003 292.444580,75.894608 
	C292.115326,75.877220 291.786072,75.859825 291.456818,75.842430 
	C289.803375,70.873619 288.149963,65.904808 286.255829,60.175152 
M186.999542,80.387100 
	C186.999634,80.719345 186.998032,81.051590 187.000107,81.383827 
	C187.020569,84.681938 186.294510,88.186905 191.697266,88.072685 
	C196.864105,87.963448 195.969742,84.518135 195.981262,81.490234 
	C196.025482,69.861961 195.941605,58.232967 196.033173,46.605247 
	C196.059967,43.202759 195.670715,40.845402 191.287903,40.924843 
	C187.048889,41.001671 186.970688,43.473793 186.983490,46.526585 
	C187.029480,57.490353 187.000244,68.454430 186.999542,80.387100 
M351.000000,75.483536 
	C351.003357,78.139191 351.095917,80.798531 350.986664,83.449539 
	C350.860626,86.508858 351.951569,88.014328 355.264404,88.046547 
	C358.628784,88.079247 360.137665,86.910843 360.031830,83.422485 
	C359.880890,78.448036 359.890778,73.461227 360.051208,68.486763 
	C360.236725,62.734287 363.149475,60.242958 369.004974,60.462723 
	C369.775757,60.491650 370.553009,60.347992 372.333588,60.201435 
	C371.771942,57.418419 371.574158,53.031647 370.738953,52.906734 
	C367.609253,52.438652 364.271240,53.363495 359.819000,53.913441 
	C358.365021,53.787224 355.166718,52.633316 352.938232,53.635635 
	C351.539215,54.264908 351.225006,58.109566 351.079803,60.550636 
	C350.804352,65.181679 351.000031,69.840752 351.000000,75.483536 
z"/>
<path fill="#9B52E0" opacity="1.000000" stroke="none" 
	d="
M49.000000,8.000729 
	C70.831619,8.000721 92.163254,7.993388 113.494865,8.005054 
	C120.115379,8.008675 121.992889,9.883345 121.994873,16.502281 
	C122.004547,48.833019 122.004478,81.163757 121.994980,113.494499 
	C121.993034,120.114754 120.116089,121.992874 113.497604,121.994858 
	C81.166870,122.004539 48.836128,122.004547 16.505392,121.994804 
	C9.884481,121.992805 8.007233,120.116089 8.005232,113.496986 
	C7.995460,81.166245 7.995497,48.835506 8.005042,16.504768 
	C8.006997,9.884279 9.883880,8.014422 16.502710,8.004871 
	C27.168453,7.989482 37.834236,8.000731 49.000000,8.000729 
M27.558092,32.932747 
	C26.446104,33.495884 25.334116,34.059017 24.051205,34.708710 
	C31.901512,54.426933 43.114315,71.450775 57.803329,86.679291 
	C63.390305,82.363930 68.606987,78.334572 74.150131,74.053062 
	C75.605934,76.160446 76.774704,77.933121 78.024025,79.647079 
	C83.998894,87.844040 89.953491,96.056404 96.008278,104.194107 
	C98.021561,106.899979 100.427086,110.011826 104.144958,107.084167 
	C107.875053,104.146889 105.490173,101.250084 103.181740,98.604370 
	C101.870659,97.101723 100.649246,95.516075 99.452942,93.918755 
	C83.859680,73.098389 69.080109,51.821178 61.588764,26.450544 
	C60.387981,22.383911 57.827858,21.407276 53.904366,22.943367 
	C45.393089,26.275631 36.819435,29.448580 27.558092,32.932747 
z"/>
<path fill="#111928" opacity="1.000000" stroke="none" 
	d="
M464.211273,87.958832 
	C462.495544,86.656860 460.649841,85.608208 459.956146,84.047516 
	C456.518097,76.312813 453.384125,68.442955 449.000000,60.645802 
	C449.000000,65.257324 449.000519,69.868851 448.999786,74.480377 
	C448.999329,77.312546 448.910858,80.147987 449.018463,82.976006 
	C449.136444,86.076477 448.442932,88.010284 444.683258,88.065956 
	C440.753723,88.124130 439.930511,86.256798 439.961426,82.840767 
	C440.069977,70.846680 439.961090,58.850727 440.036652,46.856133 
	C440.051178,44.547703 439.133087,41.276054 442.994690,41.148067 
	C446.596802,41.028675 450.781799,39.605595 452.764862,44.689587 
	C456.211395,53.525520 459.895477,62.268841 463.491364,71.046333 
	C463.737732,71.647728 464.078949,72.210281 464.806396,73.631790 
	C465.738556,71.879585 466.471619,70.739342 466.980469,69.506554 
	C470.345581,61.354298 473.907135,53.270794 476.909119,44.985332 
	C478.912262,39.456726 483.181427,41.041389 486.884949,41.147068 
	C491.095459,41.267212 489.932495,44.827705 489.953094,47.239193 
	C490.053955,59.066807 489.941589,70.896187 490.032440,82.723969 
	C490.057770,86.024521 489.468811,88.082230 485.434296,88.073669 
	C481.284882,88.064865 480.939972,85.770958 480.975494,82.592163 
	C481.060791,74.957954 481.003082,67.322144 479.900299,59.386482 
	C476.736572,67.283981 473.579590,75.184189 470.405334,83.077454 
	C469.342529,85.720230 468.448975,88.597832 464.211273,87.958832 
z"/>
<path fill="#111928" opacity="1.000000" stroke="none" 
	d="
M166.792542,59.736797 
	C166.758331,61.902817 166.331863,64.227570 167.269165,65.659843 
	C171.982834,72.862640 177.052658,79.832382 182.042603,86.948387 
	C174.913406,89.370346 171.831573,88.454269 167.992767,83.005226 
	C164.869644,78.572052 161.711761,74.163383 158.632919,69.833336 
	C152.334793,72.625832 152.737701,77.801849 153.035049,82.804253 
	C153.264084,86.657463 151.834061,88.302368 147.863068,88.034561 
	C145.122482,87.849731 143.997009,86.715080 144.004013,84.036331 
	C144.037918,71.061440 144.066742,58.086094 143.984039,45.111633 
	C143.962128,41.672699 145.765793,40.956299 148.716278,40.973087 
	C151.589020,40.989433 153.055466,42.003414 153.004700,45.047417 
	C152.917450,50.277935 152.980560,55.510967 152.980560,60.742943 
	C153.401291,60.868221 153.822006,60.993500 154.242737,61.118782 
	C158.629318,56.045452 163.112259,51.051506 167.375610,45.876663 
	C171.714127,40.610588 174.013306,39.824379 182.033646,42.140869 
	C176.856064,48.125431 171.942627,53.804703 166.792542,59.736797 
z"/>
<path fill="#111928" opacity="1.000000" stroke="none" 
	d="
M498.749634,82.066292 
	C497.780396,79.497719 497.037964,77.224403 496.173462,74.577316 
	C500.858582,74.027023 504.344696,72.794563 507.304535,77.521622 
	C508.639465,79.653618 512.954163,80.454666 516.039185,80.816269 
	C519.629578,81.237114 523.225769,79.155724 523.158813,75.490913 
	C523.121582,73.452591 520.007812,70.766197 517.669434,69.633575 
	C513.833679,67.775681 509.412018,67.174126 505.397675,65.627037 
	C499.478912,63.346031 497.252106,58.821709 497.964935,52.521954 
	C498.520508,47.612289 501.688904,43.810390 507.034576,41.800068 
	C512.624390,39.697929 518.227539,39.490772 523.468872,42.151920 
	C526.240906,43.559376 528.771545,46.013115 530.540710,48.591667 
	C531.468445,49.943813 530.518433,52.584274 530.416443,54.642918 
	C527.886902,54.069668 524.540771,54.315693 522.985291,52.765236 
	C518.791077,48.584515 515.524780,46.936680 511.302063,49.232864 
	C509.606781,50.154694 507.369904,52.337608 507.489471,53.770462 
	C507.640076,55.575169 509.616882,57.964024 511.399353,58.743465 
	C515.169495,60.392128 519.437561,60.865635 523.300354,62.345711 
	C533.400391,66.215614 536.261597,77.342407 529.130859,84.317184 
	C522.672241,90.634521 507.569336,90.753654 501.042511,84.527672 
	C500.321289,83.839729 499.663605,83.085205 498.749634,82.066292 
z"/>
<path fill="#111928" opacity="1.000000" stroke="none" 
	d="
M430.531616,57.877827 
	C427.828339,57.090878 424.347107,56.908119 423.432465,55.281860 
	C420.508484,50.082912 416.277313,48.384602 410.937592,49.183907 
	C405.523041,49.994411 402.299316,54.082012 401.501831,58.973667 
	C400.777069,63.419476 401.342590,68.248459 402.219635,72.736504 
	C403.198029,77.743240 407.479126,80.643364 412.060394,80.446938 
	C415.589081,80.295639 419.046326,77.525513 422.432495,75.726318 
	C423.200592,75.318192 423.413879,73.528343 424.105377,73.374214 
	C426.572449,72.824364 429.135498,72.705048 431.662201,72.422775 
	C431.641693,74.212448 432.120880,76.196091 431.514496,77.758347 
	C428.838593,84.652107 423.283356,88.161690 416.222107,88.871819 
	C408.239716,89.674576 400.913971,87.921799 395.932312,80.860878 
	C388.198090,69.898560 389.910645,53.633995 399.631744,44.887672 
	C409.612305,35.907856 428.277588,40.438000 431.984192,52.874687 
	C432.406799,54.292709 431.316986,56.161488 430.531616,57.877827 
z"/>
<path fill="#111928" opacity="1.000000" stroke="none" 
	d="
M268.296600,56.830967 
	C269.373077,59.567280 270.740723,61.992329 270.884399,64.487846 
	C271.228546,70.465714 271.033844,76.477013 270.986877,82.474266 
	C270.946259,87.655647 269.888458,88.358727 264.690186,88.019348 
	C261.890137,87.836548 258.970367,88.119835 256.225952,88.734550 
	C250.342743,90.052361 245.068100,88.582741 241.883026,84.214989 
	C239.071228,80.359108 238.893188,75.730171 241.996323,72.705292 
	C244.833069,69.940071 249.300522,68.787468 253.147552,67.155731 
	C254.299454,66.667152 255.968292,67.338928 257.068756,66.800934 
	C258.768127,65.970154 260.182068,64.555550 261.717102,63.388573 
	C259.847076,62.027573 258.126190,60.290230 256.043793,59.465210 
	C255.011215,59.056110 252.795502,59.913647 252.008774,60.906384 
	C248.891174,64.840385 245.402206,63.287827 241.784027,62.366642 
	C244.087036,51.619408 258.806183,48.501289 268.296600,56.830967 
M249.210449,78.403069 
	C250.622086,82.866280 254.236877,82.692055 257.319885,81.394310 
	C260.572388,80.025230 262.963654,77.341537 261.294159,72.690773 
	C256.857178,73.769653 251.615128,71.918922 249.210449,78.403069 
z"/>
<path fill="#111928" opacity="1.000000" stroke="none" 
	d="
M207.301224,84.724045 
	C199.775162,75.461647 200.541245,63.037830 208.798904,55.729774 
	C213.837753,51.270393 220.952728,50.800835 227.918167,54.467999 
	C232.815247,57.046204 236.794907,64.504677 235.740997,70.047607 
	C235.519318,71.213501 233.415878,72.757080 232.092529,72.847076 
	C227.123428,73.185028 222.118057,72.966507 217.126846,73.014824 
	C215.374252,73.031792 213.623291,73.216614 211.848770,73.326195 
	C212.727066,81.173607 219.059296,84.470146 224.509338,79.922005 
	C228.007751,77.002556 230.912384,77.641251 234.371109,78.747742 
	C232.926193,89.256912 219.445175,92.263550 207.301224,84.724045 
M213.101212,62.553841 
	C212.664810,63.805927 212.228409,65.058014 211.773376,66.363541 
	C217.124374,66.363541 221.727631,66.363541 226.539642,66.363541 
	C223.739105,59.130722 220.232895,58.113453 213.101212,62.553841 
z"/>
<path fill="#111928" opacity="1.000000" stroke="none" 
	d="
M313.073334,79.629395 
	C312.627502,74.709343 311.547577,70.054810 312.144592,65.626350 
	C313.311829,56.968292 321.156036,51.308613 329.648193,52.072948 
	C338.365601,52.857563 344.799927,59.975266 344.980591,68.836693 
	C345.041992,71.846184 343.785828,73.042274 340.842987,73.007271 
	C334.384491,72.930428 327.924438,72.983452 321.465057,72.983452 
	C321.074188,73.401802 320.683319,73.820152 320.292480,74.238503 
	C321.826904,76.449005 322.925995,79.767403 325.007629,80.585358 
	C327.524353,81.574272 332.085480,81.602646 333.615723,79.998940 
	C337.070099,76.378784 340.040009,78.218399 343.449921,78.465240 
	C342.554901,84.198517 339.029633,87.611336 333.024597,88.712219 
	C325.220642,90.142899 316.390106,87.710915 313.073334,79.629395 
M325.017426,60.556847 
	C322.833038,62.096279 319.162018,64.512695 322.961029,66.379967 
	C326.390839,68.065773 331.302948,66.735840 335.997528,66.735840 
	C333.339508,60.208065 331.485168,59.217510 325.017426,60.556847 
z"/>
<path fill="#111928" opacity="1.000000" stroke="none" 
	d="
M286.376160,60.555576 
	C288.149963,65.904808 289.803375,70.873619 291.456818,75.842430 
	C291.786072,75.859825 292.115326,75.877220 292.444580,75.894608 
	C294.238464,70.286003 296.011688,64.670692 297.831482,59.070511 
	C300.066986,52.190857 300.164673,52.152016 308.578094,53.745075 
	C307.752441,56.553314 307.039612,59.344299 306.112000,62.061977 
	C303.643311,69.294487 301.057831,76.487053 298.569336,83.712891 
	C297.515137,86.773941 295.621155,88.164482 292.232422,88.074158 
	C288.977997,87.987427 286.568359,87.574028 285.336517,83.922272 
	C281.952026,73.889389 278.253387,63.962479 274.668121,53.963173 
	C282.873688,51.676994 284.398804,52.553123 286.376160,60.555576 
z"/>
<path fill="#111928" opacity="1.000000" stroke="none" 
	d="
M186.999496,79.902748 
	C187.000244,68.454430 187.029480,57.490353 186.983490,46.526585 
	C186.970688,43.473793 187.048889,41.001671 191.287903,40.924843 
	C195.670715,40.845402 196.059967,43.202759 196.033173,46.605247 
	C195.941605,58.232967 196.025482,69.861961 195.981262,81.490234 
	C195.969742,84.518135 196.864105,87.963448 191.697266,88.072685 
	C186.294510,88.186905 187.020569,84.681938 187.000107,81.383827 
	C186.998032,81.051590 186.999634,80.719345 186.999496,79.902748 
z"/>
<path fill="#111928" opacity="1.000000" stroke="none" 
	d="
M351.000000,74.985855 
	C351.000031,69.840752 350.804352,65.181679 351.079803,60.550636 
	C351.225006,58.109566 351.539215,54.264908 352.938232,53.635635 
	C355.166718,52.633316 358.365021,53.787224 359.819000,53.913441 
	C364.271240,53.363495 367.609253,52.438652 370.738953,52.906734 
	C371.574158,53.031647 371.771942,57.418419 372.333588,60.201435 
	C370.553009,60.347992 369.775757,60.491650 369.004974,60.462723 
	C363.149475,60.242958 360.236725,62.734287 360.051208,68.486763 
	C359.890778,73.461227 359.880890,78.448036 360.031830,83.422485 
	C360.137665,86.910843 358.628784,88.079247 355.264404,88.046547 
	C351.951569,88.014328 350.860626,86.508858 350.986664,83.449539 
	C351.095917,80.798531 351.003357,78.139191 351.000000,74.985855 
z"/>
<path fill="#FEFDFF" opacity="1.000000" stroke="none" 
	d="
M27.914688,32.809708 
	C36.819435,29.448580 45.393089,26.275631 53.904366,22.943367 
	C57.827858,21.407276 60.387981,22.383911 61.588764,26.450544 
	C69.080109,51.821178 83.859680,73.098389 99.452942,93.918755 
	C100.649246,95.516075 101.870659,97.101723 103.181740,98.604370 
	C105.490173,101.250084 107.875053,104.146889 104.144958,107.084167 
	C100.427086,110.011826 98.021561,106.899979 96.008278,104.194107 
	C89.953491,96.056404 83.998894,87.844040 78.024025,79.647079 
	C76.774704,77.933121 75.605934,76.160446 74.150131,74.053062 
	C68.606987,78.334572 63.390305,82.363930 57.803329,86.679291 
	C43.114315,71.450775 31.901512,54.426933 24.051205,34.708710 
	C25.334116,34.059017 26.446104,33.495884 27.914688,32.809708 
M51.902000,31.703209 
	C51.418247,33.366722 50.706093,35.018967 50.623024,36.702255 
	C50.603985,37.088020 52.982994,38.196278 53.842815,37.871590 
	C54.971729,37.445293 56.619202,35.260674 56.427086,34.993149 
	C55.433422,33.609467 53.923935,32.596214 51.902000,31.703209 
z"/>
<path fill="#000000" opacity="1.000000" stroke="none" 
	d="
M249.208160,78.023727 
	C251.615128,71.918922 256.857178,73.769653 261.294159,72.690773 
	C262.963654,77.341537 260.572388,80.025230 257.319885,81.394310 
	C254.236877,82.692055 250.622086,82.866280 249.208160,78.023727 
z"/>
<path fill="#000000" opacity="1.000000" stroke="none" 
	d="
M213.350861,62.299133 
	C220.232895,58.113453 223.739105,59.130722 226.539642,66.363541 
	C221.727631,66.363541 217.124374,66.363541 211.773376,66.363541 
	C212.228409,65.058014 212.664810,63.805927 213.350861,62.299133 
z"/>
<path fill="#000000" opacity="1.000000" stroke="none" 
	d="
M325.354126,60.414932 
	C331.485168,59.217510 333.339508,60.208065 335.997528,66.735840 
	C331.302948,66.735840 326.390839,68.065773 322.961029,66.379967 
	C319.162018,64.512695 322.833038,62.096279 325.354126,60.414932 
z"/>
<path fill="#A25DE2" opacity="1.000000" stroke="none" 
	d="
M52.248150,31.578506 
	C53.923935,32.596214 55.433422,33.609467 56.427086,34.993149 
	C56.619202,35.260674 54.971729,37.445293 53.842815,37.871590 
	C52.982994,38.196278 50.603985,37.088020 50.623024,36.702255 
	C50.706093,35.018967 51.418247,33.366722 52.248150,31.578506 
z"/>
</svg>