<svg width="32" height="32" viewBox="0 0 32 32" fill="none" xmlns="http://www.w3.org/2000/svg">
<path fill-rule="evenodd" clip-rule="evenodd" d="M17.3347 3.56766L17.4981 5.53005C17.5619 6.28591 18.0782 6.92724 18.8031 7.1501C19.3162 7.30796 19.809 7.51348 20.2788 7.758C20.9431 8.11148 21.7615 8.02357 22.3397 7.53391C22.781 7.16743 23.3673 6.67156 23.847 6.26485C24.0928 6.05685 24.4568 6.07233 24.6846 6.30014L25.6999 7.31539C25.9277 7.5432 25.9432 7.90719 25.7352 8.15296L24.4624 9.65724C23.9715 10.2373 23.8836 11.0575 24.2401 11.728C24.4884 12.1953 24.6939 12.6881 24.8555 13.2C25.0771 13.9188 25.7166 14.4338 26.4706 14.4963C27.0413 14.549 27.8059 14.6127 28.4323 14.6653C28.753 14.6919 29 14.96 29 15.2819V16.7181C29 17.04 28.753 17.3081 28.4323 17.3347L26.4699 17.4981C25.7141 17.5619 25.0728 18.0782 24.8499 18.8031C24.692 19.3162 24.4865 19.809 24.242 20.2788C23.8885 20.9431 23.9764 21.7615 24.4661 22.3397C24.8326 22.781 25.3284 23.3673 25.7352 23.847C25.9432 24.0928 25.9277 24.4568 25.6999 24.6846L24.6846 25.6999C24.4568 25.9277 24.0928 25.9432 23.847 25.7352L22.3428 24.4624C21.7627 23.9715 20.9425 23.8836 20.272 24.2401C19.8047 24.4884 19.3119 24.6939 18.8 24.8555C18.0812 25.0771 17.5662 25.7166 17.5037 26.4706C17.451 27.0413 17.3873 27.8059 17.3347 28.4323C17.3081 28.753 17.04 29 16.7181 29H15.2819C14.96 29 14.6919 28.753 14.6653 28.4323L14.5019 26.4699C14.4381 25.7141 13.9218 25.0728 13.1969 24.8499C12.6838 24.692 12.191 24.4865 11.7212 24.242C11.0569 23.8885 10.2385 23.9764 9.66034 24.4661C9.21895 24.8326 8.63272 25.3284 8.15296 25.7352C7.90719 25.9432 7.5432 25.9277 7.31539 25.6999L6.30014 24.6846C6.07233 24.4568 6.05685 24.0928 6.26485 23.847L7.53761 22.3428C8.02852 21.7627 8.11643 20.9425 7.75985 20.272C7.51162 19.8047 7.3061 19.3119 7.14453 18.8C6.92291 18.0812 6.28343 17.5662 5.52943 17.5037C4.95867 17.451 4.19414 17.3873 3.56766 17.3347C3.247 17.3081 3 17.04 3 16.7181V15.2819C3 14.96 3.247 14.6919 3.56766 14.6653L5.53005 14.5019C6.28591 14.4381 6.92724 13.9218 7.1501 13.1969C7.30796 12.6838 7.51348 12.191 7.758 11.7212C8.11148 11.0569 8.02357 10.2385 7.53391 9.66034C7.16743 9.21895 6.67156 8.63272 6.26485 8.15296C6.05685 7.90719 6.07233 7.5432 6.30014 7.31539L7.31539 6.30014C7.5432 6.07233 7.90719 6.05685 8.15296 6.26485L9.65724 7.53761C10.2373 8.02852 11.0575 8.11643 11.728 7.75985C12.1953 7.51162 12.6881 7.3061 13.2 7.14453C13.9188 6.92291 14.4338 6.28343 14.4963 5.52943C14.549 4.95867 14.6127 4.19414 14.6653 3.56766C14.6919 3.247 14.96 3 15.2819 3H16.7181C17.04 3 17.3081 3.247 17.3347 3.56766ZM16 11.6667C13.6086 11.6667 11.6667 13.6086 11.6667 16C11.6667 18.3914 13.6086 20.3333 16 20.3333C18.3914 20.3333 20.3333 18.3914 20.3333 16C20.3333 13.6086 18.3914 11.6667 16 11.6667Z" fill="black"/>
</svg>
