<svg width="32" height="32" viewBox="0 0 32 32" fill="none" xmlns="http://www.w3.org/2000/svg">
<path d="M29.9402 8.34825C29.9402 8.31842 29.9402 8.31842 29.9103 8.28859L25.9316 4.52983C25.9316 4.5 25.9017 4.5 25.8718 4.5H22.9402C22.9402 4.5 22.9402 4.5 22.9103 4.5H20.0085H19.7393H17.1068H16.8675H15.0727H14.8333H12.2009H11.9316H9.02992H6.09829C6.06838 4.5 6.06838 4.5 6.03846 4.52983L2.05983 8.28859C2.05983 8.28859 2.05983 8.28859 2.02992 8.31842C2 8.31842 2 8.34825 2 8.37808V12.1965V12.2562C2.02991 12.7036 2.35897 13.0914 2.83761 13.3301V27.5H29.0727V13.3599C29.5812 13.1213 29.9402 12.7335 30 12.2562V12.2263V8.37808C29.9701 8.37808 29.9701 8.34825 29.9402 8.34825ZM22.1026 12.1965V8.49741H25.812V12.1667V12.2263C25.7521 12.9125 24.9444 13.4196 23.9872 13.4196C23.0299 13.4196 22.1923 12.8528 22.1026 12.1965ZM22.8205 4.70882L25.6923 8.25876H22.0727L20.2778 5.03696L20.1282 4.73865H22.8205V4.70882ZM15.0128 4.70882H16.9274L17.8248 8.25876H14.1154L15.0128 4.70882ZM14.1154 12.1667V8.46757H17.8248V12.1368V12.1965C17.765 12.8826 16.9573 13.3898 16 13.3898C15.0427 13.3898 14.2051 12.8528 14.1154 12.1667ZM9.11966 4.70882H11.812L11.6624 5.03696L9.86752 8.25876H6.27778L9.11966 4.70882ZM6.21795 12.1667V8.46757H9.89744V12.1368V12.1965C9.83761 12.8826 9.02992 13.3898 8.07265 13.3898C7.11539 13.3898 6.27778 12.8528 6.21795 12.1667ZM26.7094 24.8748H5.17094V13.3898C5.61966 13.1809 5.94872 12.8528 6.03846 12.465C6.24786 13.0914 7.05556 13.5986 8.04274 13.5986C9.02992 13.5986 9.86752 13.0914 10.047 12.4351C10.2265 13.0914 11.0641 13.5986 12.0214 13.5986C12.9786 13.5986 13.7863 13.1213 13.9957 12.4948C14.2051 13.1213 15.0427 13.5986 16 13.5986C17.0171 13.5986 17.8547 13.0914 17.9744 12.465C18.1838 13.0914 18.9915 13.5986 19.9786 13.5986C20.9658 13.5986 21.8034 13.0914 21.953 12.4351C22.1325 13.0914 22.9701 13.5986 23.9573 13.5986C24.9444 13.5986 25.7821 13.0914 25.9316 12.4351C26.0214 12.7931 26.3205 13.0914 26.6795 13.3003V24.8748H26.7094Z" fill="black"/>
</svg>
