<svg width="56" height="56" viewBox="0 0 56 56" fill="none" xmlns="http://www.w3.org/2000/svg">
<path fill-rule="evenodd" clip-rule="evenodd" d="M30.464 5.04799L30.7657 8.67086C30.8834 10.0663 31.8366 11.2503 33.1749 11.6617C34.1223 11.9532 35.032 12.3326 35.8994 12.784C37.1257 13.4366 38.6366 13.2743 39.704 12.3703C40.5189 11.6937 41.6011 10.7783 42.4869 10.0274C42.9406 9.64341 43.6126 9.67199 44.0331 10.0926L45.9074 11.9669C46.328 12.3874 46.3566 13.0594 45.9726 13.5131L43.6229 16.2903C42.7166 17.3611 42.5543 18.8754 43.2126 20.1131C43.6709 20.976 44.0503 21.8857 44.3486 22.8308C44.7577 24.1577 45.9383 25.1086 47.3303 25.224C48.384 25.3212 49.7954 25.4389 50.952 25.536C51.544 25.5851 52 26.08 52 26.6743V29.3257C52 29.92 51.544 30.4149 50.952 30.464L47.3291 30.7657C45.9337 30.8834 44.7497 31.8366 44.3383 33.1749C44.0468 34.1223 43.6674 35.032 43.216 35.8994C42.5634 37.1257 42.7257 38.6366 43.6297 39.704C44.3063 40.5189 45.2217 41.6011 45.9726 42.4869C46.3566 42.9406 46.328 43.6126 45.9074 44.0331L44.0331 45.9074C43.6126 46.328 42.9406 46.3566 42.4869 45.9726L39.7097 43.6229C38.6389 42.7166 37.1246 42.5543 35.8869 43.2126C35.024 43.6709 34.1143 44.0503 33.1692 44.3486C31.8423 44.7577 30.8914 45.9383 30.776 47.3303C30.6788 48.384 30.5612 49.7954 30.464 50.952C30.4149 51.544 29.92 52 29.3257 52H26.6743C26.08 52 25.5851 51.544 25.536 50.952L25.2343 47.3291C25.1166 45.9337 24.1634 44.7497 22.8251 44.3383C21.8777 44.0468 20.968 43.6674 20.1006 43.216C18.8743 42.5634 17.3634 42.7257 16.296 43.6297C15.4811 44.3063 14.3989 45.2217 13.5131 45.9726C13.0594 46.3566 12.3874 46.328 11.9669 45.9074L10.0926 44.0331C9.67199 43.6126 9.64341 42.9406 10.0274 42.4869L12.3771 39.7097C13.2834 38.6389 13.4457 37.1246 12.7874 35.8869C12.3291 35.024 11.9497 34.1143 11.6514 33.1692C11.2423 31.8423 10.0617 30.8914 8.66971 30.776C7.616 30.6788 6.20456 30.5612 5.04799 30.464C4.45599 30.4149 4 29.92 4 29.3257V26.6743C4 26.08 4.45599 25.5851 5.04799 25.536L8.67086 25.2343C10.0663 25.1166 11.2503 24.1634 11.6617 22.8251C11.9532 21.8777 12.3326 20.968 12.784 20.1006C13.4366 18.8743 13.2743 17.3634 12.3703 16.296C11.6937 15.4811 10.7783 14.3989 10.0274 13.5131C9.64341 13.0594 9.67199 12.3874 10.0926 11.9669L11.9669 10.0926C12.3874 9.67199 13.0594 9.64341 13.5131 10.0274L16.2903 12.3771C17.3611 13.2834 18.8754 13.4457 20.1131 12.7874C20.976 12.3291 21.8857 11.9497 22.8308 11.6514C24.1577 11.2423 25.1086 10.0617 25.224 8.66971C25.3212 7.616 25.4389 6.20456 25.536 5.04799C25.5851 4.45599 26.08 4 26.6743 4H29.3257C29.92 4 30.4149 4.45599 30.464 5.04799ZM28 20C23.5851 20 20 23.5851 20 28C20 32.4149 23.5851 36 28 36C32.4149 36 36 32.4149 36 28C36 23.5851 32.4149 20 28 20Z" fill="black"/>
</svg>
