<svg width="69" height="58" viewBox="0 0 69 58" fill="none" xmlns="http://www.w3.org/2000/svg">
<g fill="none" fill-rule="evenodd">
<path fill="#1E2532" fill-rule="nonzero" d="M64.5707 12.3658C64.5707 12.3009 64.5707 12.3009 64.5058 12.2361L55.8807 4.06485C55.8807 4 55.8158 4 55.751 4H49.3956C49.3956 4 49.3956 4 49.3307 4H43.0402H42.4566H36.7497H36.2309H32.3398H31.821H26.1141H25.5305H19.2399H12.8846C12.8197 4 12.8197 4 12.7549 4.06485L4.1297 12.2361C4.1297 12.2361 4.1297 12.2361 4.06485 12.3009C4 12.3009 4 12.3658 4 12.4306V20.7315V20.8612C4.06485 21.834 4.77821 22.677 5.81582 23.1958V54H62.69V23.2607C63.7925 22.7419 64.5707 21.8988 64.7004 20.8612V20.7964V12.4306C64.6355 12.4306 64.6355 12.3658 64.5707 12.3658ZM47.5798 20.7315V12.69H55.6213V20.6667V20.7964C55.4916 22.2879 53.7406 23.3904 51.6654 23.3904C49.5901 23.3904 47.7743 22.1582 47.5798 20.7315ZM49.1362 4.45396L55.3619 12.1712H47.5149L43.6239 5.16731L43.2996 4.51881H49.1362V4.45396ZM32.2101 4.45396H36.3606L38.3061 12.1712H30.2646L32.2101 4.45396ZM30.2646 20.6667V12.6252H38.3061V20.6018V20.7315C38.1764 22.2231 36.4254 23.3256 34.3502 23.3256C32.275 23.3256 30.4591 22.1582 30.2646 20.6667ZM19.4345 4.45396H25.2711L24.9468 5.16731L21.0558 12.1712H13.2737L19.4345 4.45396ZM13.144 20.6667V12.6252H21.1206V20.6018V20.7315C20.9909 22.2231 19.2399 23.3256 17.1647 23.3256C15.0895 23.3256 13.2737 22.1582 13.144 20.6667ZM57.5668 48.2931H10.8742V23.3256C11.847 22.8716 12.5603 22.1582 12.7549 21.3152C13.2088 22.677 14.9598 23.7795 17.0999 23.7795C19.2399 23.7795 21.0558 22.677 21.4449 21.2503C21.834 22.677 23.6498 23.7795 25.725 23.7795C27.8003 23.7795 29.5512 22.7419 30.0052 21.38C30.4591 22.7419 32.275 23.7795 34.3502 23.7795C36.5551 23.7795 38.3709 22.677 38.6304 21.3152C39.0843 22.677 40.8353 23.7795 42.9754 23.7795C45.1154 23.7795 46.9313 22.677 47.2555 21.2503C47.6446 22.677 49.4604 23.7795 51.6005 23.7795C53.7406 23.7795 55.5564 22.677 55.8807 21.2503C56.0752 22.0285 56.7237 22.677 57.502 23.131V48.2931H57.5668Z" transform="translate(-1381 -11.437) translate(1381 11.437)"/>
</g>
</svg>

